<mxfile host="Electron" modified="2023-07-19T07:41:21.179Z" agent="Mozilla/5.0 (Windows NT 10.0; Win64; x64) AppleWebKit/537.36 (KHTML, like Gecko) draw.io/21.6.1 Chrome/112.0.5615.204 Electron/24.6.1 Safari/537.36" etag="beSQ8-NzL82_LhVpUUfF" version="21.6.1" type="device">
  <diagram name="Page-1" id="pdf92lAs7p1g5eFGPByC">
    <mxGraphModel dx="1420" dy="822" grid="1" gridSize="10" guides="1" tooltips="1" connect="1" arrows="1" fold="1" page="1" pageScale="1" pageWidth="1169" pageHeight="1654" math="0" shadow="0">
      <root>
        <mxCell id="0" />
        <mxCell id="1" parent="0" />
        <mxCell id="3WRZTJSC7eWxSjFzDak7-1" value="Users are in Main Menu" style="shape=note;whiteSpace=wrap;html=1;backgroundOutline=1;darkOpacity=0.05;" parent="1" vertex="1">
          <mxGeometry x="160" y="70" width="200" height="40" as="geometry" />
        </mxCell>
        <mxCell id="znpGrqkIis355zsyrKQV-31" value="" style="edgeStyle=orthogonalEdgeStyle;rounded=0;orthogonalLoop=1;jettySize=auto;html=1;" parent="1" source="znpGrqkIis355zsyrKQV-1" target="znpGrqkIis355zsyrKQV-6" edge="1">
          <mxGeometry relative="1" as="geometry" />
        </mxCell>
        <mxCell id="znpGrqkIis355zsyrKQV-1" value="" style="ellipse;html=1;shape=startState;fillColor=#000000;strokeColor=#ff0000;" parent="1" vertex="1">
          <mxGeometry x="570" y="80" width="40" height="40" as="geometry" />
        </mxCell>
        <mxCell id="znpGrqkIis355zsyrKQV-3" value="" style="endArrow=classic;html=1;rounded=0;entryX=0;entryY=0.5;entryDx=0;entryDy=0;" parent="1" target="znpGrqkIis355zsyrKQV-1" edge="1">
          <mxGeometry width="50" height="50" relative="1" as="geometry">
            <mxPoint x="370" y="100" as="sourcePoint" />
            <mxPoint x="610" y="400" as="targetPoint" />
          </mxGeometry>
        </mxCell>
        <mxCell id="r9_-6e4TvxgxcgmjdAX8-2" value="" style="edgeStyle=orthogonalEdgeStyle;rounded=0;orthogonalLoop=1;jettySize=auto;html=1;" parent="1" source="znpGrqkIis355zsyrKQV-6" target="r9_-6e4TvxgxcgmjdAX8-1" edge="1">
          <mxGeometry relative="1" as="geometry" />
        </mxCell>
        <mxCell id="znpGrqkIis355zsyrKQV-6" value="Choose Search game option" style="rounded=1;whiteSpace=wrap;html=1;arcSize=40;fontColor=#000000;fillColor=#ffffc0;strokeColor=#ff0000;" parent="1" vertex="1">
          <mxGeometry x="520" y="160" width="140" height="60" as="geometry" />
        </mxCell>
        <mxCell id="r9_-6e4TvxgxcgmjdAX8-25" value="" style="edgeStyle=orthogonalEdgeStyle;rounded=0;orthogonalLoop=1;jettySize=auto;html=1;entryX=0.5;entryY=0;entryDx=0;entryDy=0;" parent="1" source="znpGrqkIis355zsyrKQV-11" target="r9_-6e4TvxgxcgmjdAX8-26" edge="1">
          <mxGeometry relative="1" as="geometry">
            <mxPoint x="590" y="620" as="targetPoint" />
          </mxGeometry>
        </mxCell>
        <mxCell id="znpGrqkIis355zsyrKQV-11" value="If keyword is empty" style="rhombus;whiteSpace=wrap;html=1;fontColor=#000000;fillColor=#ffffc0;strokeColor=#ff0000;" parent="1" vertex="1">
          <mxGeometry x="500" y="450" width="180" height="80" as="geometry" />
        </mxCell>
        <mxCell id="r9_-6e4TvxgxcgmjdAX8-15" value="" style="edgeStyle=orthogonalEdgeStyle;rounded=0;orthogonalLoop=1;jettySize=auto;html=1;" parent="1" source="r9_-6e4TvxgxcgmjdAX8-1" target="r9_-6e4TvxgxcgmjdAX8-14" edge="1">
          <mxGeometry relative="1" as="geometry" />
        </mxCell>
        <mxCell id="r9_-6e4TvxgxcgmjdAX8-1" value="Displays list of game" style="rounded=1;whiteSpace=wrap;html=1;arcSize=40;fontColor=#000000;fillColor=#ffffc0;strokeColor=#ff0000;" parent="1" vertex="1">
          <mxGeometry x="525" y="250" width="130" height="50" as="geometry" />
        </mxCell>
        <mxCell id="r9_-6e4TvxgxcgmjdAX8-8" value="" style="edgeStyle=orthogonalEdgeStyle;rounded=0;orthogonalLoop=1;jettySize=auto;html=1;exitX=0;exitY=0.5;exitDx=0;exitDy=0;entryX=0;entryY=0.5;entryDx=0;entryDy=0;" parent="1" source="znpGrqkIis355zsyrKQV-11" target="r9_-6e4TvxgxcgmjdAX8-1" edge="1">
          <mxGeometry relative="1" as="geometry">
            <mxPoint x="520" y="600" as="sourcePoint" />
            <mxPoint x="510" y="190" as="targetPoint" />
            <Array as="points">
              <mxPoint x="460" y="490" />
              <mxPoint x="460" y="275" />
            </Array>
          </mxGeometry>
        </mxCell>
        <mxCell id="r9_-6e4TvxgxcgmjdAX8-13" value="No" style="text;html=1;align=center;verticalAlign=middle;resizable=0;points=[];autosize=1;strokeColor=none;fillColor=none;" parent="1" vertex="1">
          <mxGeometry x="585" y="530" width="40" height="30" as="geometry" />
        </mxCell>
        <mxCell id="r9_-6e4TvxgxcgmjdAX8-17" value="" style="edgeStyle=orthogonalEdgeStyle;rounded=0;orthogonalLoop=1;jettySize=auto;html=1;" parent="1" source="r9_-6e4TvxgxcgmjdAX8-14" target="r9_-6e4TvxgxcgmjdAX8-16" edge="1">
          <mxGeometry relative="1" as="geometry" />
        </mxCell>
        <mxCell id="r9_-6e4TvxgxcgmjdAX8-19" value="" style="edgeStyle=orthogonalEdgeStyle;rounded=0;orthogonalLoop=1;jettySize=auto;html=1;" parent="1" source="r9_-6e4TvxgxcgmjdAX8-14" target="znpGrqkIis355zsyrKQV-11" edge="1">
          <mxGeometry relative="1" as="geometry" />
        </mxCell>
        <mxCell id="r9_-6e4TvxgxcgmjdAX8-14" value="Enter Keywords" style="rhombus;whiteSpace=wrap;html=1;fontColor=#000000;fillColor=#ffffc0;strokeColor=#ff0000;" parent="1" vertex="1">
          <mxGeometry x="500" y="330" width="180" height="80" as="geometry" />
        </mxCell>
        <mxCell id="r9_-6e4TvxgxcgmjdAX8-16" value="Choose Exit option" style="rounded=1;whiteSpace=wrap;html=1;fillColor=#ffffc0;strokeColor=#ff0000;fontColor=#000000;" parent="1" vertex="1">
          <mxGeometry x="300" y="340" width="120" height="60" as="geometry" />
        </mxCell>
        <mxCell id="r9_-6e4TvxgxcgmjdAX8-18" value="" style="edgeStyle=orthogonalEdgeStyle;rounded=0;orthogonalLoop=1;jettySize=auto;html=1;exitX=0;exitY=0.5;exitDx=0;exitDy=0;entryX=0.5;entryY=1;entryDx=0;entryDy=0;entryPerimeter=0;" parent="1" source="r9_-6e4TvxgxcgmjdAX8-16" target="3WRZTJSC7eWxSjFzDak7-1" edge="1">
          <mxGeometry relative="1" as="geometry">
            <mxPoint x="230" y="420" as="sourcePoint" />
            <mxPoint x="170" y="420" as="targetPoint" />
          </mxGeometry>
        </mxCell>
        <mxCell id="r9_-6e4TvxgxcgmjdAX8-20" value="Yes" style="text;html=1;align=center;verticalAlign=middle;resizable=0;points=[];autosize=1;strokeColor=none;fillColor=none;" parent="1" vertex="1">
          <mxGeometry x="470" y="468" width="40" height="30" as="geometry" />
        </mxCell>
        <mxCell id="r9_-6e4TvxgxcgmjdAX8-22" value="Yes" style="text;html=1;align=center;verticalAlign=middle;resizable=0;points=[];autosize=1;strokeColor=none;fillColor=none;" parent="1" vertex="1">
          <mxGeometry x="585" y="410" width="40" height="30" as="geometry" />
        </mxCell>
        <mxCell id="r9_-6e4TvxgxcgmjdAX8-23" value="No" style="text;html=1;align=center;verticalAlign=middle;resizable=0;points=[];autosize=1;strokeColor=none;fillColor=none;" parent="1" vertex="1">
          <mxGeometry x="470" y="350" width="40" height="30" as="geometry" />
        </mxCell>
        <mxCell id="r9_-6e4TvxgxcgmjdAX8-28" value="" style="edgeStyle=orthogonalEdgeStyle;rounded=0;orthogonalLoop=1;jettySize=auto;html=1;" parent="1" source="r9_-6e4TvxgxcgmjdAX8-26" target="r9_-6e4TvxgxcgmjdAX8-27" edge="1">
          <mxGeometry relative="1" as="geometry" />
        </mxCell>
        <mxCell id="r9_-6e4TvxgxcgmjdAX8-33" value="" style="edgeStyle=orthogonalEdgeStyle;rounded=0;orthogonalLoop=1;jettySize=auto;html=1;" parent="1" source="r9_-6e4TvxgxcgmjdAX8-26" target="r9_-6e4TvxgxcgmjdAX8-32" edge="1">
          <mxGeometry relative="1" as="geometry" />
        </mxCell>
        <mxCell id="r9_-6e4TvxgxcgmjdAX8-26" value="If no results" style="rhombus;whiteSpace=wrap;html=1;fontColor=#000000;fillColor=#ffffc0;strokeColor=#ff0000;" parent="1" vertex="1">
          <mxGeometry x="500" y="570" width="180" height="80" as="geometry" />
        </mxCell>
        <mxCell id="r9_-6e4TvxgxcgmjdAX8-27" value="Display message no match the search criteria" style="rounded=1;whiteSpace=wrap;html=1;fillColor=#ffffc0;strokeColor=#ff0000;fontColor=#000000;" parent="1" vertex="1">
          <mxGeometry x="760" y="580" width="140" height="60" as="geometry" />
        </mxCell>
        <mxCell id="r9_-6e4TvxgxcgmjdAX8-29" value="Yes" style="text;html=1;align=center;verticalAlign=middle;resizable=0;points=[];autosize=1;strokeColor=none;fillColor=none;" parent="1" vertex="1">
          <mxGeometry x="680" y="590" width="40" height="30" as="geometry" />
        </mxCell>
        <mxCell id="r9_-6e4TvxgxcgmjdAX8-31" value="" style="edgeStyle=orthogonalEdgeStyle;rounded=0;orthogonalLoop=1;jettySize=auto;html=1;entryX=1;entryY=0.5;entryDx=0;entryDy=0;exitX=1;exitY=0.5;exitDx=0;exitDy=0;" parent="1" source="r9_-6e4TvxgxcgmjdAX8-27" target="r9_-6e4TvxgxcgmjdAX8-14" edge="1">
          <mxGeometry relative="1" as="geometry">
            <mxPoint x="740" y="544.5" as="sourcePoint" />
            <mxPoint x="820" y="544.5" as="targetPoint" />
          </mxGeometry>
        </mxCell>
        <mxCell id="r9_-6e4TvxgxcgmjdAX8-36" value="" style="edgeStyle=orthogonalEdgeStyle;rounded=0;orthogonalLoop=1;jettySize=auto;html=1;" parent="1" source="r9_-6e4TvxgxcgmjdAX8-32" target="r9_-6e4TvxgxcgmjdAX8-35" edge="1">
          <mxGeometry relative="1" as="geometry" />
        </mxCell>
        <mxCell id="r9_-6e4TvxgxcgmjdAX8-32" value="Display the search results" style="rounded=1;whiteSpace=wrap;html=1;fillColor=#ffffc0;strokeColor=#ff0000;fontColor=#000000;" parent="1" vertex="1">
          <mxGeometry x="530" y="700" width="120" height="60" as="geometry" />
        </mxCell>
        <mxCell id="r9_-6e4TvxgxcgmjdAX8-34" value="No" style="text;html=1;align=center;verticalAlign=middle;resizable=0;points=[];autosize=1;strokeColor=none;fillColor=none;" parent="1" vertex="1">
          <mxGeometry x="590" y="648" width="40" height="30" as="geometry" />
        </mxCell>
        <mxCell id="r9_-6e4TvxgxcgmjdAX8-44" value="" style="edgeStyle=orthogonalEdgeStyle;rounded=0;orthogonalLoop=1;jettySize=auto;html=1;entryX=0.5;entryY=0;entryDx=0;entryDy=0;" parent="1" source="r9_-6e4TvxgxcgmjdAX8-35" target="r9_-6e4TvxgxcgmjdAX8-37" edge="1">
          <mxGeometry relative="1" as="geometry">
            <mxPoint x="590" y="910" as="targetPoint" />
          </mxGeometry>
        </mxCell>
        <mxCell id="r9_-6e4TvxgxcgmjdAX8-35" value="User choose game" style="rhombus;whiteSpace=wrap;html=1;fontColor=#000000;fillColor=#ffffc0;strokeColor=#ff0000;" parent="1" vertex="1">
          <mxGeometry x="500" y="790" width="180" height="80" as="geometry" />
        </mxCell>
        <mxCell id="r9_-6e4TvxgxcgmjdAX8-52" value="" style="edgeStyle=orthogonalEdgeStyle;rounded=0;orthogonalLoop=1;jettySize=auto;html=1;" parent="1" source="r9_-6e4TvxgxcgmjdAX8-37" target="r9_-6e4TvxgxcgmjdAX8-51" edge="1">
          <mxGeometry relative="1" as="geometry" />
        </mxCell>
        <mxCell id="r9_-6e4TvxgxcgmjdAX8-37" value="Display details game" style="rounded=1;whiteSpace=wrap;html=1;fillColor=#ffffc0;strokeColor=#ff0000;fontColor=#000000;" parent="1" vertex="1">
          <mxGeometry x="530" y="920" width="120" height="60" as="geometry" />
        </mxCell>
        <mxCell id="r9_-6e4TvxgxcgmjdAX8-39" value="" style="edgeStyle=orthogonalEdgeStyle;rounded=0;orthogonalLoop=1;jettySize=auto;html=1;exitX=1;exitY=0.5;exitDx=0;exitDy=0;" parent="1" source="r9_-6e4TvxgxcgmjdAX8-35" edge="1">
          <mxGeometry relative="1" as="geometry">
            <mxPoint x="870" y="820" as="sourcePoint" />
            <mxPoint x="920" y="610" as="targetPoint" />
          </mxGeometry>
        </mxCell>
        <mxCell id="r9_-6e4TvxgxcgmjdAX8-40" value="No" style="text;html=1;align=center;verticalAlign=middle;resizable=0;points=[];autosize=1;strokeColor=none;fillColor=none;" parent="1" vertex="1">
          <mxGeometry x="670" y="808" width="40" height="30" as="geometry" />
        </mxCell>
        <mxCell id="r9_-6e4TvxgxcgmjdAX8-41" value="Yes" style="text;html=1;align=center;verticalAlign=middle;resizable=0;points=[];autosize=1;strokeColor=none;fillColor=none;" parent="1" vertex="1">
          <mxGeometry x="590" y="870" width="40" height="30" as="geometry" />
        </mxCell>
        <mxCell id="r9_-6e4TvxgxcgmjdAX8-54" value="" style="edgeStyle=orthogonalEdgeStyle;rounded=0;orthogonalLoop=1;jettySize=auto;html=1;exitX=0;exitY=0.5;exitDx=0;exitDy=0;entryX=0.5;entryY=1;entryDx=0;entryDy=0;" parent="1" source="r9_-6e4TvxgxcgmjdAX8-51" target="r9_-6e4TvxgxcgmjdAX8-53" edge="1">
          <mxGeometry relative="1" as="geometry">
            <mxPoint x="270" y="970" as="sourcePoint" />
            <mxPoint x="120" y="920" as="targetPoint" />
          </mxGeometry>
        </mxCell>
        <mxCell id="r9_-6e4TvxgxcgmjdAX8-60" value="" style="edgeStyle=orthogonalEdgeStyle;rounded=0;orthogonalLoop=1;jettySize=auto;html=1;entryX=1;entryY=0.5;entryDx=0;entryDy=0;" parent="1" source="r9_-6e4TvxgxcgmjdAX8-51" target="r9_-6e4TvxgxcgmjdAX8-55" edge="1">
          <mxGeometry relative="1" as="geometry">
            <mxPoint x="390" y="770" as="targetPoint" />
            <Array as="points">
              <mxPoint x="400" y="730" />
            </Array>
          </mxGeometry>
        </mxCell>
        <mxCell id="r9_-6e4TvxgxcgmjdAX8-51" value="Choose Add to Cart" style="rhombus;whiteSpace=wrap;html=1;fontColor=#000000;fillColor=#ffffc0;strokeColor=#ff0000;" parent="1" vertex="1">
          <mxGeometry x="310" y="910" width="180" height="80" as="geometry" />
        </mxCell>
        <mxCell id="r9_-6e4TvxgxcgmjdAX8-56" value="" style="edgeStyle=orthogonalEdgeStyle;rounded=0;orthogonalLoop=1;jettySize=auto;html=1;" parent="1" source="r9_-6e4TvxgxcgmjdAX8-53" target="r9_-6e4TvxgxcgmjdAX8-55" edge="1">
          <mxGeometry relative="1" as="geometry" />
        </mxCell>
        <mxCell id="r9_-6e4TvxgxcgmjdAX8-53" value="Go to UC03" style="rounded=1;whiteSpace=wrap;html=1;fillColor=#ffffc0;strokeColor=#ff0000;fontColor=#000000;" parent="1" vertex="1">
          <mxGeometry x="190" y="800" width="120" height="60" as="geometry" />
        </mxCell>
        <mxCell id="r9_-6e4TvxgxcgmjdAX8-55" value="" style="ellipse;html=1;shape=endState;fillColor=#000000;strokeColor=#ff0000;" parent="1" vertex="1">
          <mxGeometry x="235" y="715" width="30" height="30" as="geometry" />
        </mxCell>
        <mxCell id="r9_-6e4TvxgxcgmjdAX8-57" value="Yes" style="text;html=1;align=center;verticalAlign=middle;resizable=0;points=[];autosize=1;strokeColor=none;fillColor=none;" parent="1" vertex="1">
          <mxGeometry x="280" y="930" width="40" height="30" as="geometry" />
        </mxCell>
        <mxCell id="r9_-6e4TvxgxcgmjdAX8-61" value="No" style="text;html=1;align=center;verticalAlign=middle;resizable=0;points=[];autosize=1;strokeColor=none;fillColor=none;" parent="1" vertex="1">
          <mxGeometry x="400" y="880" width="40" height="30" as="geometry" />
        </mxCell>
      </root>
    </mxGraphModel>
  </diagram>
</mxfile>
